<svg xmlns="http://www.w3.org/2000/svg" width="30.001" height="18.122" viewBox="0 0 30.001 18.122">
  <g id="Google_logo_Copy" data-name="Google logo Copy" transform="translate(-0.999 -0.888)">
    <path id="Google_logo" d="M.347,11.539A9.061,9.061,0,0,1,15.271,2.462c-1.911,1.77-1.85,1.88-2.6,2.621A5.234,5.234,0,0,0,9.13,3.772a5.345,5.345,0,0,0,0,10.69c2.96,0,4.161-1.26,4.93-3.57-1.42,0-5.06.22-5.06.22v-3h9c.61,4.31-1.34,10.01-8.87,10.01H9.06A9.059,9.059,0,0,1,.347,11.539ZM24,14.1v-2.99H21v-3h3v-3h3v3h3v3H27v3Z" transform="translate(0.999 0.888)" fill="#9b9b9b"/>
  </g>
</svg>
