<svg xmlns="http://www.w3.org/2000/svg" width="20.006" height="16.001" viewBox="0 0 20.006 16.001">
  <g id="Twitter_Icon-1_Copy" data-name="Twitter Icon-1 Copy" transform="translate(-0.009 -0.01)">
    <path id="Twitter_Icon" d="M17.953,3.98c.009.17.013.35.013.53A11.5,11.5,0,0,1,6.289,16,11.793,11.793,0,0,1,0,14.19c.319.03.647.05.978.05a8.344,8.344,0,0,0,5.1-1.73A4.1,4.1,0,0,1,2.243,9.7a3.947,3.947,0,0,0,.771.08A4.284,4.284,0,0,0,4.1,9.64,4.065,4.065,0,0,1,.8,5.68a.228.228,0,0,1,0-.05,4.155,4.155,0,0,0,1.858.5A4.013,4.013,0,0,1,.837,2.77,3.963,3.963,0,0,1,1.391.74,11.734,11.734,0,0,0,9.848,4.96a4.173,4.173,0,0,1-.1-.92A4.073,4.073,0,0,1,13.848,0a4.139,4.139,0,0,1,2.994,1.27A8.11,8.11,0,0,0,19.45.29a4.065,4.065,0,0,1-1.8,2.24,8.428,8.428,0,0,0,2.356-.64A8.234,8.234,0,0,1,17.953,3.98Z" transform="translate(0.009 0.01)" fill="#9b9b9b"/>
  </g>
</svg>
