<svg xmlns="http://www.w3.org/2000/svg" width="31" height="31" viewBox="0 0 31 31">
  <g id="BEHANCE" transform="translate(-2042.489 -978.829)">
    <ellipse id="BACK" cx="15.5" cy="15.5" rx="15.5" ry="15.5" transform="translate(2042.489 978.829)" fill="#1c1a1b"/>
    <path id="BEHANCE-2" data-name="BEHANCE" d="M2062.933,991.706a3.254,3.254,0,0,0-2.509,1.076,4.213,4.213,0,0,0-.992,2.975,4.385,4.385,0,0,0,.754,2.631,3.415,3.415,0,0,0,2.948,1.3,3.579,3.579,0,0,0,2.094-.581,3.267,3.267,0,0,0,1.226-1.685l-2.013-.339a1.585,1.585,0,0,1-.488.833,1.217,1.217,0,0,1-.8.259,1.515,1.515,0,0,1-1.164-.5,2.048,2.048,0,0,1-.49-1.4h5.061a4.976,4.976,0,0,0-.942-3.448A3.386,3.386,0,0,0,2062.933,991.706Zm-1.4,3.335a1.859,1.859,0,0,1,.423-1.306,1.406,1.406,0,0,1,1.094-.482,1.384,1.384,0,0,1,1.051.456,1.944,1.944,0,0,1,.451,1.332Zm3.766-4h-4.467v-1.789h4.467Zm-9.062,2.875a2.5,2.5,0,0,0,1.48-2.287,2.369,2.369,0,0,0-.324-1.233,2.662,2.662,0,0,0-.808-.883,2.746,2.746,0,0,0-1.1-.433,12.257,12.257,0,0,0-1.865-.108h-4.21v10.545H2053c1.356-.014,2.212-.035,2.567-.072a3.009,3.009,0,0,0,1.426-.5,2.8,2.8,0,0,0,.912-1.087,3.116,3.116,0,0,0,.335-1.4,2.553,2.553,0,0,0-.518-1.591A2.76,2.76,0,0,0,2056.242,993.916Zm-4.7-3.186h1.221c1,0,1.609.009,1.82.035a1.218,1.218,0,0,1,.8.37,1.152,1.152,0,0,1,.271.795,1.128,1.128,0,0,1-.312.826,1.438,1.438,0,0,1-.86.374c-.2.024-.717.038-1.546.038h-1.395Zm4.2,6.526a1.347,1.347,0,0,1-.774.421,10.3,10.3,0,0,1-1.458.061h-1.97v-2.817h1.718a7.277,7.277,0,0,1,1.885.151,1.3,1.3,0,0,1,.667.482,1.374,1.374,0,0,1,.231.8A1.311,1.311,0,0,1,2055.742,997.256Z" transform="translate(0 -0.004)" fill="#fff" fill-rule="evenodd"/>
  </g>
</svg>
