<svg xmlns="http://www.w3.org/2000/svg" width="31" height="31" viewBox="0 0 31 31">
  <g id="DRIBBBLE" transform="translate(-2081.24 -978.829)">
    <ellipse id="BACK" cx="15.5" cy="15.5" rx="15.5" ry="15.5" transform="translate(2081.24 978.829)" fill="#1c1a1b"/>
    <path id="DRIBBBLE-2" data-name="DRIBBBLE" d="M2098,990.812a47.787,47.787,0,0,0-3.4-5.318,9.457,9.457,0,0,1,2.131-.25,9.07,9.07,0,0,1,6.033,2.289A10.306,10.306,0,0,1,2098,990.812Zm-1.755.55a58.222,58.222,0,0,0-3.37-5.252,9.111,9.111,0,0,0-5.044,6.358A33.707,33.707,0,0,0,2096.249,991.362Zm1.132,3.046c.116-.042.241-.075.358-.108-.225-.516-.475-1.033-.741-1.54a33.6,33.6,0,0,1-9.354,1.29c0,.092-.008.183-.008.275a9.092,9.092,0,0,0,2.347,6.083A14.5,14.5,0,0,1,2097.38,994.408Zm.916,1.414a12.506,12.506,0,0,0-7.141,5.676,9.061,9.061,0,0,0,5.584,1.914,8.9,8.9,0,0,0,3.553-.716,37.709,37.709,0,0,0-1.939-6.891A.163.163,0,0,1,2098.3,995.822Zm1.756-.441a38.929,38.929,0,0,1,1.764,6.475,9.036,9.036,0,0,0,3.9-6.084A13.449,13.449,0,0,0,2100.052,995.381Zm-1.348-3.213c.208.433.416.875.608,1.315.066.158.133.316.2.466a21.387,21.387,0,0,1,6.333.291,9.049,9.049,0,0,0-2.063-5.658A12.13,12.13,0,0,1,2098.7,992.169Z" fill="#fff" fill-rule="evenodd"/>
  </g>
</svg>
