<svg xmlns="http://www.w3.org/2000/svg" width="31" height="31" viewBox="0 0 31 31">
  <g id="INSTAGRAM" transform="translate(-1925.533 -978.829)">
    <ellipse id="BACK" cx="15.5" cy="15.5" rx="15.5" ry="15.5" transform="translate(1925.533 978.829)" fill="#1c1a1b"/>
    <path id="INSTAGRAM-2" data-name="INSTAGRAM" d="M1949.844,988.238a4.755,4.755,0,0,0-2.72-2.719,6.825,6.825,0,0,0-2.257-.432c-.992-.046-1.308-.056-3.834-.056s-2.842.01-3.833.056a6.826,6.826,0,0,0-2.257.432,4.75,4.75,0,0,0-2.719,2.719,6.8,6.8,0,0,0-.433,2.258c-.045.992-.056,1.307-.056,3.833s.011,2.842.056,3.833a6.787,6.787,0,0,0,.433,2.257,4.748,4.748,0,0,0,2.719,2.72,6.82,6.82,0,0,0,2.257.432c.991.046,1.308.056,3.833.056s2.843-.01,3.834-.056a6.819,6.819,0,0,0,2.257-.432,4.753,4.753,0,0,0,2.72-2.72,6.814,6.814,0,0,0,.432-2.257c.045-.992.056-1.307.056-3.833s-.011-2.842-.056-3.833A6.825,6.825,0,0,0,1949.844,988.238Zm-8.811,10.866a4.775,4.775,0,1,1,4.775-4.775A4.775,4.775,0,0,1,1941.033,999.1Zm4.964-8.622a1.116,1.116,0,1,1,1.115-1.117A1.116,1.116,0,0,1,1946,990.482Zm-1.864,3.847a3.1,3.1,0,1,1-3.1-3.1A3.1,3.1,0,0,1,1944.132,994.329Z" fill="#fff" fill-rule="evenodd"/>
  </g>
</svg>
