<svg xmlns="http://www.w3.org/2000/svg" width="31" height="31" viewBox="0 0 31 31">
  <g id="LINKEDIN" transform="translate(-2003.302 -978.583)">
    <ellipse id="BACK" cx="15.5" cy="15.5" rx="15.5" ry="15.5" transform="translate(2003.302 978.583)" fill="#1c1a1b"/>
    <path id="LINKEDIN-2" data-name="LINKEDIN" d="M2012.505,992.054h2.8v9.012h-2.8Zm13.292,4.069v4.943H2023v-4.382c0-1.045-.019-2.39-1.456-2.39-1.457,0-1.681,1.139-1.681,2.314v4.458h-2.8v-9.012h2.686v1.232h.037a2.943,2.943,0,0,1,2.651-1.456C2025.273,991.83,2025.8,993.7,2025.8,996.123Zm-10.268-6.925a1.624,1.624,0,1,1-1.623-1.624A1.625,1.625,0,0,1,2015.529,989.2Z" transform="translate(-0.237 -0.237)" fill="#fff" fill-rule="evenodd"/>
  </g>
</svg>
