<svg xmlns="http://www.w3.org/2000/svg" width="31" height="31" viewBox="0 0 31 31">
  <g id="TWITTER" transform="translate(-1964.319 -978.829)">
    <ellipse id="BACK" cx="15.5" cy="15.5" rx="15.5" ry="15.5" transform="translate(1964.319 978.829)" fill="#1c1a1b"/>
    <path id="TWITTER-2" data-name="TWITTER" d="M1988.924,988.683a7.428,7.428,0,0,1-2.146.588,3.747,3.747,0,0,0,1.643-2.067,7.5,7.5,0,0,1-2.373.907,3.74,3.74,0,0,0-6.366,3.409,10.606,10.606,0,0,1-7.7-3.905,3.741,3.741,0,0,0,1.156,4.989,3.7,3.7,0,0,1-1.692-.467v.048a3.739,3.739,0,0,0,3,3.664,3.747,3.747,0,0,1-1.687.064,3.742,3.742,0,0,0,3.49,2.6,7.5,7.5,0,0,1-4.64,1.6,7.721,7.721,0,0,1-.892-.052,10.624,10.624,0,0,0,16.357-8.956c0-.161,0-.322-.011-.483A7.6,7.6,0,0,0,1988.924,988.683Z" transform="translate(0 -0.004)" fill="#fff" fill-rule="evenodd"/>
  </g>
</svg>
