<svg xmlns="http://www.w3.org/2000/svg" width="31" height="31" viewBox="0 0 31 31">
  <g id="FACEBOOK" transform="translate(-1886.672 -979.066)">
    <ellipse id="BACK" cx="15.5" cy="15.5" rx="15.5" ry="15.5" transform="translate(1886.672 979.066)" fill="#1c1a1b"/>
    <path id="Icon_color" data-name="Icon color" d="M9.5,19h0a9.473,9.473,0,0,1-5.242-1.577L1.546,18.3H1.4a.485.485,0,0,1-.342-.143.465.465,0,0,1-.114-.484l.855-2.6A9.5,9.5,0,1,1,9.5,19Zm0-17.1a7.6,7.6,0,1,0,5.375,2.226A7.61,7.61,0,0,0,9.5,1.9ZM12.154,14a7.257,7.257,0,0,1-2.389-.655A9.89,9.89,0,0,1,5.774,9.814,4.528,4.528,0,0,1,4.824,7.4,2.6,2.6,0,0,1,5.7,5.444a1.2,1.2,0,0,1,.779-.287h.314c.241,0,.351,0,.513.4s.657,1.617.712,1.729a.449.449,0,0,1,0,.437,1.606,1.606,0,0,1-.257.371c-.051.059-.1.113-.156.166a2.834,2.834,0,0,0-.2.214.379.379,0,0,0-.095.5,7.179,7.179,0,0,0,1.3,1.615,5.991,5.991,0,0,0,1.9,1.169.522.522,0,0,0,.57-.1,7.285,7.285,0,0,0,.617-.835.456.456,0,0,1,.58-.162c.212.065,1.313.609,1.6.751l.123.06a.815.815,0,0,1,.333.215,1.893,1.893,0,0,1-.152,1.121,2.2,2.2,0,0,1-1.568,1.13A1.961,1.961,0,0,1,12.154,14Z" transform="translate(1892.672 985.066)" fill="#fff"/>
  </g>
</svg>
