<svg xmlns="http://www.w3.org/2000/svg" width="103.143" height="35.687" viewBox="0 0 103.143 35.687">
  <g id="Group_18313" data-name="Group 18313" transform="translate(-693.5 -445.5)">
    <g id="Group_88" data-name="Group 88" transform="translate(693.5 445.5)">
      <g id="Group_87" data-name="Group 87" transform="translate(0 0)">
        <g id="Group_14" data-name="Group 14" transform="translate(0)">
          <g id="Group_9" data-name="Group 9" transform="translate(0)">
            <g id="Group_8" data-name="Group 8">
              <path id="Path_27" data-name="Path 27" d="M86.388,607.039" transform="translate(-75.804 -593.649)" fill="#fff"/>
              <path id="Path_28" data-name="Path 28" d="M52.635,559.392l3.906,2.243v5.043l-8.785-4.686v4.686L39.07,571.59l-8.912-4.946v-4.716l3.87-2.31V564.4l5.043,2.83,4.912-2.83v-5.563L39.527,556.3l-9.369-5.333V540.849l8.749-4.946,8.815,5.142q.008,2.249.017,4.5-1.925,1.158-3.845,2.315V543.2l-4.987-2.937-4.91,2.8v5.6l14.148,8.132,3.676-2.276-.03-11.095,4.716,2.667q.017,5.547.033,11.094Z" transform="translate(-30.158 -535.903)" fill="#fff"/>
            </g>
          </g>
          <g id="Group_13" data-name="Group 13" transform="translate(29.725 13.921)">
            <g id="Group_11" data-name="Group 11">
              <path id="Path_29" data-name="Path 29" d="M179.3,615.277c0-.528-.625-.615-1.38-.658-1.639-.119-2.717-.679-2.739-2.318-.065-3.256,5.8-3.256,5.758,0h-1.833c0-1-2.027-.916-2.092-.021-.043.571.518.69,1.2.766,1.5.162,2.965.356,2.965,2.243,0,3.17-6.146,3.256-6.1-.065h1.865C176.939,616.183,179.3,616.161,179.3,615.277Z" transform="translate(-175.074 -609.859)" fill="#fff"/>
              <path id="Path_30" data-name="Path 30" d="M214.16,617.049h-2.976l-.442.949h-1.887v-.28l3.4-7.365h.83l3.407,7.365V618H214.6Zm-1.5-3.645-.841,1.984h1.7Z" transform="translate(-202.496 -610.26)" fill="#fff"/>
              <path id="Path_31" data-name="Path 31" d="M257.354,610.554h.69v7.569H256.07v-3.364l-1.607,1.682h-.216l-1.6-1.682v3.364h-1.973v-7.569h.712l2.954,3.278Z" transform="translate(-236.448 -610.423)" fill="#fff"/>
              <path id="Path_32" data-name="Path 32" d="M295.772,612.336h-2.793V613.4h2.566v1.714h-2.566v1.326h2.89v1.714H291.06v-7.548h4.712Z" transform="translate(-269.228 -610.469)" fill="#fff"/>
              <path id="Path_33" data-name="Path 33" d="M322.052,612.336h-2.793V613.4h2.566v1.714h-2.566v1.326h2.89v1.714H317.34v-7.548h4.712Z" transform="translate(-290.561 -610.469)" fill="#fff"/>
              <path id="Path_34" data-name="Path 34" d="M350,617.878v.281h-2.157l-1.294-2.221h-1v2.221h-1.93v-7.548h3.31a2.685,2.685,0,0,1,1.6,4.874Zm-3.073-5.542c-.453-.01-.927,0-1.38,0V614.2h1.38C347.971,614.2,348.025,612.347,346.925,612.336Z" transform="translate(-311.89 -610.469)" fill="#fff"/>
              <g id="Group_10" data-name="Group 10" transform="translate(39.766 0.093)">
                <path id="Path_35" data-name="Path 35" d="M386.337,618.159v-7.548H388.3v2.858h.14c1.93,0,1.833-1.445,1.833-2.858h1.984c0,1.542.043,2.965-1.456,3.925l2.049,3.321v.3H390.7l-1.66-2.922a4.374,4.374,0,0,1-.744.043v2.879Z" transform="translate(-386.337 -610.562)" fill="#fff"/>
                <path id="Path_36" data-name="Path 36" d="M428.563,617.878v.281h-2.156l-1.294-2.221h-1v2.221h-1.93v-7.548h3.31a2.685,2.685,0,0,1,1.6,4.874Zm-3.073-5.542c-.453-.01-.927,0-1.38,0V614.2h1.38C426.536,614.2,426.59,612.347,425.49,612.336Z" transform="translate(-415.433 -610.562)" fill="#fff"/>
                <path id="Path_37" data-name="Path 37" d="M462.644,617.049h-2.976l-.442.949h-1.887v-.28l3.4-7.365h.83l3.407,7.365V618h-1.887Zm-1.5-3.645-.841,1.984h1.7Z" transform="translate(-443.974 -610.353)" fill="#fff"/>
                <path id="Path_38" data-name="Path 38" d="M503.87,612.336h-2.793V613.4h2.566v1.714h-2.566v1.326h2.89v1.714h-4.809v-7.548h4.712Z" transform="translate(-477.922 -610.562)" fill="#fff"/>
                <path id="Path_39" data-name="Path 39" d="M532.667,610.554h.69v7.569h-1.973v-3.364l-1.607,1.682h-.216l-1.6-1.682v3.364h-1.973v-7.569h.711l2.954,3.278Z" transform="translate(-499.705 -610.516)" fill="#fff"/>
              </g>
            </g>
            <g id="Group_12" data-name="Group 12" transform="translate(0 8.396)">
              <path id="Path_40" data-name="Path 40" d="M177.539,657.835v-2.979h1.11v3a1.8,1.8,0,0,1-3.575,0v-3h1.1v2.979c0,.366.353.546.687.546S177.539,658.2,177.539,657.835Z" transform="translate(-175.074 -654.782)" fill="#fff"/>
              <path id="Path_41" data-name="Path 41" d="M195.443,657.937l-.822,1.412h-1.239v-.173l1.451-2.208-1.3-1.939v-.173h1.194l.712,1.168h.032l.719-1.168h1.188v.173l-1.3,1.939,1.457,2.208v.173H196.3l-.822-1.412Z" transform="translate(-189.937 -654.782)" fill="#fff"/>
              <path id="Path_42" data-name="Path 42" d="M222.715,657.835v-2.979h1.111v3a1.8,1.8,0,0,1-3.576,0v-3h1.1v2.979c0,.366.353.546.687.546S222.715,658.2,222.715,657.835Z" transform="translate(-211.746 -654.782)" fill="#fff"/>
              <path id="Path_43" data-name="Path 43" d="M241.486,658.342v1.008h-2.279v-1.008h.571v-2.484h-.526v-1h2.189v1h-.526v2.484Z" transform="translate(-227.135 -654.782)" fill="#fff"/>
              <path id="Path_44" data-name="Path 44" d="M258.529,659.349h-1.694v-4.493h1.694A2.247,2.247,0,0,1,258.529,659.349Zm-.545-1.046h.545c1.431,0,1.431-2.4,0-2.4h-.545Z" transform="translate(-241.445 -654.782)" fill="#fff"/>
              <path id="Path_45" data-name="Path 45" d="M281.018,655.883h-1.662v.635h1.528v1.021h-1.528v.79h1.72v1.021h-2.863v-4.493h2.8Z" transform="translate(-258.799 -654.782)" fill="#fff"/>
              <path id="Path_46" data-name="Path 46" d="M295.594,657.69c0-.315-.372-.366-.822-.391-.976-.071-1.618-.4-1.63-1.38-.038-1.938,3.453-1.938,3.428,0h-1.091c0-.6-1.207-.546-1.245-.013-.026.34.308.411.712.456.892.1,1.765.212,1.765,1.335,0,1.887-3.659,1.939-3.633-.039h1.111C294.188,658.229,295.594,658.216,295.594,657.69Z" transform="translate(-270.865 -654.465)" fill="#fff"/>
              <path id="Path_47" data-name="Path 47" d="M313.223,658.342v1.008h-2.279v-1.008h.571v-2.484h-.526v-1h2.189v1h-.526v2.484Z" transform="translate(-285.369 -654.782)" fill="#fff"/>
              <path id="Path_48" data-name="Path 48" d="M323.954,654.55a1.988,1.988,0,0,1,2.067,1.592h-1.13a.919.919,0,0,0-.937-.539,1.127,1.127,0,0,0-1.117,1.252,1.105,1.105,0,0,0,1.117,1.232.914.914,0,0,0,.963-.552h-.956v-.995h2.125a3.271,3.271,0,0,1-.128,1.316,1.984,1.984,0,0,1-2,1.3,2.3,2.3,0,1,1,0-4.6Z" transform="translate(-294.06 -654.534)" fill="#fff"/>
              <path id="Path_49" data-name="Path 49" d="M347.319,657.059v2.208h-1.187v-4.512h.417l2.272,2.221v-2.2H350v4.5h-.411Z" transform="translate(-313.934 -654.7)" fill="#fff"/>
              <path id="Path_50" data-name="Path 50" d="M371.611,655.883h-1.662v.635h1.528v1.021h-1.528v.79h1.72v1.021h-2.863v-4.493h2.805Z" transform="translate(-332.34 -654.782)" fill="#fff"/>
              <path id="Path_51" data-name="Path 51" d="M389.107,659.183v.167h-1.284l-.77-1.322h-.6v1.322h-1.149v-4.493h1.971a1.6,1.6,0,0,1,.95,2.9Zm-1.829-3.3c-.27-.006-.552,0-.822,0v1.111h.822C387.9,656.994,387.932,655.89,387.278,655.883Z" transform="translate(-345.735 -654.782)" fill="#fff"/>
            </g>
          </g>
        </g>
      </g>
    </g>
  </g>
</svg>
