<svg xmlns="http://www.w3.org/2000/svg" width="171" height="59.166" viewBox="0 0 171 59.166">
  <g id="Group_87" data-name="Group 87" transform="translate(0 0)">
    <g id="Group_14" data-name="Group 14" transform="translate(0)">
      <g id="Group_9" data-name="Group 9" transform="translate(0)">
        <g id="Group_8" data-name="Group 8">
          <path id="Path_27" data-name="Path 27" d="M86.388,607.039" transform="translate(-68.84 -584.84)" fill="#1c1a1b"/>
          <path id="Path_28" data-name="Path 28" d="M67.422,574.845l6.475,3.719v8.36l-14.564-7.768v7.768l-14.4,8.144-14.775-8.2V579.05l6.415-3.829v7.929l8.36,4.691,8.144-4.691v-9.222l-7.388-4.21-15.532-8.841V544.1l14.5-8.2,14.615,8.525q.014,3.728.027,7.461-3.192,1.919-6.374,3.838V548l-8.268-4.87-8.14,4.641v9.277L59.979,570.53l6.094-3.774-.05-18.394,7.819,4.421q.028,9.2.055,18.394Z" transform="translate(-30.158 -535.903)" fill="#1c1a1b"/>
        </g>
      </g>
      <g id="Group_13" data-name="Group 13" transform="translate(49.28 23.079)">
        <g id="Group_11" data-name="Group 11">
          <path id="Path_29" data-name="Path 29" d="M182.082,618.842c0-.876-1.037-1.019-2.288-1.09-2.717-.2-4.505-1.126-4.541-3.843-.107-5.4,9.618-5.4,9.546,0H181.76c0-1.662-3.361-1.519-3.468-.036-.072.947.858,1.144,1.984,1.269,2.485.268,4.916.59,4.916,3.718,0,5.256-10.19,5.4-10.118-.107h3.093C178.167,620.344,182.082,620.308,182.082,618.842Z" transform="translate(-175.074 -609.859)" fill="#1c1a1b"/>
          <path id="Path_30" data-name="Path 30" d="M217.65,621.454h-4.934l-.733,1.573h-3.128v-.465l5.631-12.21h1.377l5.649,12.21v.465h-3.128Zm-2.485-6.042-1.394,3.29H216.6Z" transform="translate(-198.313 -610.199)" fill="#1c1a1b"/>
          <path id="Path_31" data-name="Path 31" d="M261.745,610.554h1.144V623.1h-3.271v-5.578l-2.663,2.789H256.6l-2.646-2.789V623.1h-3.271V610.554h1.18l4.9,5.434Z" transform="translate(-227.085 -610.337)" fill="#1c1a1b"/>
          <path id="Path_32" data-name="Path 32" d="M298.872,613.471h-4.63v1.77H298.5v2.842h-4.255v2.2h4.791v2.842H291.06V610.611h7.812Z" transform="translate(-254.865 -610.376)" fill="#1c1a1b"/>
          <path id="Path_33" data-name="Path 33" d="M325.152,613.471h-4.63v1.77h4.255v2.842h-4.255v2.2h4.791v2.842H317.34V610.611h7.812Z" transform="translate(-272.943 -610.376)" fill="#1c1a1b"/>
          <path id="Path_34" data-name="Path 34" d="M354.2,622.66v.465h-3.576l-2.145-3.683h-1.663v3.683h-3.2V610.611H349.1c4.916.018,5.81,5.935,2.646,8.08Zm-5.1-9.189c-.751-.017-1.537,0-2.288,0v3.093H349.1C350.837,616.564,350.927,613.489,349.1,613.471Z" transform="translate(-291.019 -610.376)" fill="#1c1a1b"/>
          <g id="Group_10" data-name="Group 10" transform="translate(65.928 0.154)">
            <path id="Path_35" data-name="Path 35" d="M386.337,623.125V610.611h3.253v4.737h.233c3.2,0,3.039-2.4,3.039-4.737h3.289c0,2.556.072,4.916-2.413,6.507l3.4,5.506v.5h-3.558l-2.753-4.844a7.256,7.256,0,0,1-1.234.071v4.773Z" transform="translate(-386.337 -610.531)" fill="#1c1a1b"/>
            <path id="Path_36" data-name="Path 36" d="M432.763,622.66v.465h-3.575l-2.146-3.683H425.38v3.683h-3.2V610.611h5.488c4.916.018,5.81,5.935,2.645,8.08Zm-5.094-9.189c-.751-.017-1.538,0-2.288,0v3.093h2.288C429.4,616.564,429.491,613.489,427.668,613.471Z" transform="translate(-410.995 -610.531)" fill="#1c1a1b"/>
            <path id="Path_37" data-name="Path 37" d="M466.134,621.454H461.2l-.733,1.573h-3.128v-.465l5.631-12.21h1.376L470,622.563v.465h-3.129Zm-2.485-6.042-1.394,3.29h2.825Z" transform="translate(-435.182 -610.353)" fill="#1c1a1b"/>
            <path id="Path_38" data-name="Path 38" d="M506.97,613.471h-4.63v1.77h4.255v2.842H502.34v2.2h4.791v2.842h-7.973V610.611h7.812Z" transform="translate(-463.95 -610.531)" fill="#1c1a1b"/>
            <path id="Path_39" data-name="Path 39" d="M537.058,610.554H538.2V623.1h-3.271v-5.578l-2.664,2.789h-.358l-2.646-2.789V623.1h-3.271V610.554h1.18l4.9,5.434Z" transform="translate(-482.411 -610.491)" fill="#1c1a1b"/>
          </g>
        </g>
        <g id="Group_12" data-name="Group 12" transform="translate(0 13.92)">
          <path id="Path_40" data-name="Path 40" d="M179.161,659.794v-4.938H181v4.97a2.991,2.991,0,0,1-5.927,0v-4.97h1.82v4.938c0,.607.585.9,1.138.9S179.161,660.4,179.161,659.794Z" transform="translate(-175.074 -654.734)" fill="#1c1a1b"/>
          <path id="Path_41" data-name="Path 41" d="M196.8,659.964l-1.362,2.341h-2.054v-.287l2.405-3.661-2.15-3.214v-.287h1.979l1.181,1.937h.053l1.192-1.937h1.969v.287l-2.15,3.214,2.415,3.661v.287h-2.054l-1.362-2.341Z" transform="translate(-187.669 -654.734)" fill="#1c1a1b"/>
          <path id="Path_42" data-name="Path 42" d="M224.337,659.794v-4.938h1.841v4.97a2.991,2.991,0,0,1-5.928,0v-4.97h1.82v4.938c0,.607.585.9,1.139.9S224.337,660.4,224.337,659.794Z" transform="translate(-206.152 -654.734)" fill="#1c1a1b"/>
          <path id="Path_43" data-name="Path 43" d="M242.985,660.635v1.671h-3.778v-1.671h.947v-4.119h-.873v-1.66h3.629v1.66h-.873v4.119Z" transform="translate(-219.193 -654.734)" fill="#1c1a1b"/>
          <path id="Path_44" data-name="Path 44" d="M259.644,662.305h-2.809v-7.449h2.809C264.5,654.878,264.5,662.284,259.644,662.305Zm-.9-1.734h.9c2.373,0,2.373-3.98,0-3.98h-.9Z" transform="translate(-231.32 -654.734)" fill="#1c1a1b"/>
          <path id="Path_45" data-name="Path 45" d="M282.863,656.559h-2.756v1.054h2.533V659.3h-2.533v1.309h2.852v1.692h-4.746v-7.449h4.65Z" transform="translate(-246.027 -654.734)" fill="#1c1a1b"/>
          <path id="Path_46" data-name="Path 46" d="M297.249,659.812c0-.521-.617-.606-1.362-.649-1.617-.117-2.682-.67-2.7-2.288-.064-3.214,5.725-3.214,5.683,0h-1.809c0-.99-2-.9-2.064-.021-.043.564.511.681,1.181.755,1.479.159,2.927.351,2.927,2.213,0,3.129-6.066,3.214-6.024-.064h1.841C294.919,660.706,297.249,660.685,297.249,659.812Z" transform="translate(-256.252 -654.465)" fill="#1c1a1b"/>
          <path id="Path_47" data-name="Path 47" d="M314.722,660.635v1.671h-3.778v-1.671h.947v-4.119h-.872v-1.66h3.629v1.66h-.873v4.119Z" transform="translate(-268.543 -654.734)" fill="#1c1a1b"/>
          <path id="Path_48" data-name="Path 48" d="M325.47,654.55a3.3,3.3,0,0,1,3.427,2.639h-1.873a1.524,1.524,0,0,0-1.554-.894,1.868,1.868,0,0,0-1.852,2.075,1.833,1.833,0,0,0,1.852,2.043,1.515,1.515,0,0,0,1.6-.915h-1.586v-1.65H329a5.424,5.424,0,0,1-.213,2.182,3.289,3.289,0,0,1-3.32,2.15,3.815,3.815,0,1,1,0-7.63Z" transform="translate(-275.908 -654.523)" fill="#1c1a1b"/>
          <path id="Path_49" data-name="Path 49" d="M348.1,658.575v3.661h-1.969v-7.481h.692l3.767,3.682v-3.65h1.948v7.46h-.681Z" transform="translate(-292.75 -654.664)" fill="#1c1a1b"/>
          <path id="Path_50" data-name="Path 50" d="M373.456,656.559H370.7v1.054h2.533V659.3H370.7v1.309h2.852v1.692h-4.746v-7.449h4.65Z" transform="translate(-308.349 -654.734)" fill="#1c1a1b"/>
          <path id="Path_51" data-name="Path 51" d="M391.607,662.029v.276h-2.128l-1.277-2.192h-.99v2.192h-1.9v-7.449h3.267a2.65,2.65,0,0,1,1.575,4.81Zm-3.033-5.47c-.447-.01-.915,0-1.362,0V658.4h1.362C389.606,658.4,389.66,656.57,388.574,656.559Z" transform="translate(-319.7 -654.734)" fill="#1c1a1b"/>
        </g>
      </g>
    </g>
  </g>
</svg>
